The.Impossible.2012.CAM.READNFO.XViD-26k


Click Here For I.M.D.B






An account of a family caught, with tens of thousands of strangers, in the mayhem of one of the worst natural catastrophes of our time




Sources - VIDEO: edmond dantes ..... thanks .... :P
AUDIO: edmond dantes ..... thanks .... :P







Video
ID : 0
Format : MPEG-4 Visual
Format profile : Advanced Simple@L5
Format settings, BVOP : 2
Format settings, QPel : Yes
Format settings, GMC : No warppoints
Format settings, Matrix : Default (H.263)
Muxing mode : Packed bitstream
Codec ID : XVID
Codec ID/Hint : XviD
Duration : 1h 25mn
Bit rate : 2 091 Kbps
Width : 720 pixels
Height : 256 pixels
Display aspect ratio : 2.813
Frame rate : 25.000 fps
Color space : YUV
Chroma subsampling : 4:2:0
Bit depth : 8 bits
Scan type : Progressive
Compression mode : Lossy
Bits/(Pixel*Frame) : 0.454
Stream size : 1.25 GiB (94%)
Writing library : XviD 64


Audio
ID : 1
Format : MPEG Audio
Format version : Version 1
Format profile : Layer 3
Codec ID : 55
Codec ID/Hint : MP3
Duration : 1h 25mn
Bit rate mode : Constant
Bit rate : 128 Kbps
Channel(s) : 2 channels
Sampling rate : 44.1 KHz
Compression mode : Lossy
Delay relative to video : 9ms
Stream size : 78.6 MiB (6%)
Alignment : Split accross interleaves
Interleave, duration : 16345 ms (408.63 video frames)
